<?xml version="1.0" encoding="UTF-8" standalone="no"?>
<!DOCTYPE svg PUBLIC "-//W3C//DTD SVG 1.1//EN" "http://www.w3.org/Graphics/SVG/1.1/DTD/svg11.dtd">
<svg width="100%" height="100%" viewBox="0 0 250 42" version="1.1" xmlns="http://www.w3.org/2000/svg" xmlns:xlink="http://www.w3.org/1999/xlink" xml:space="preserve" xmlns:serif="http://www.serif.com/" style="fill-rule:evenodd;clip-rule:evenodd;stroke-linejoin:round;stroke-miterlimit:2;">
    <g transform="matrix(2.31329,0,0,2.31329,52.5307,1.88121)">
        <path d="M5.41,12.67C3.957,12.67 2.74,12.18 1.76,11.2C0.78,10.22 0.29,8.997 0.29,7.53C0.29,6.09 0.78,4.877 1.76,3.89C2.74,2.91 3.957,2.42 5.41,2.42C6.87,2.42 8.123,2.877 9.17,3.79L7.81,5.28C7.11,4.733 6.31,4.46 5.41,4.46C4.49,4.467 3.747,4.757 3.18,5.33C2.62,5.897 2.34,6.623 2.34,7.51C2.34,8.463 2.623,9.22 3.19,9.78C3.757,10.34 4.5,10.62 5.42,10.62C6.16,10.62 6.727,10.477 7.12,10.19L7.12,8.43L5.76,8.44L5.76,6.52L9.17,6.52L9.17,11.31C8.13,12.217 6.877,12.67 5.41,12.67ZM12.84,5.83L12.84,6.59C13.333,6.09 13.93,5.84 14.63,5.84C14.85,5.84 15.06,5.857 15.26,5.89L14.96,7.78C14.74,7.58 14.423,7.473 14.01,7.46C13.543,7.493 13.153,7.83 12.84,8.47L12.84,12.67L10.93,12.67L10.93,6.04L12.84,5.83ZM19.61,12.74C18.617,12.74 17.787,12.407 17.12,11.74C16.46,11.073 16.13,10.247 16.13,9.26C16.13,8.267 16.46,7.437 17.12,6.77C17.787,6.103 18.617,5.77 19.61,5.77C20.603,5.77 21.433,6.103 22.1,6.77C22.767,7.437 23.1,8.267 23.1,9.26C23.1,10.253 22.767,11.08 22.1,11.74C21.433,12.407 20.603,12.74 19.61,12.74ZM19.61,11.09C20.123,11.09 20.543,10.913 20.87,10.56C21.197,10.213 21.36,9.78 21.36,9.26C21.36,8.74 21.197,8.307 20.87,7.96C20.543,7.607 20.12,7.43 19.6,7.43C19.087,7.43 18.667,7.607 18.34,7.96C18.02,8.307 17.86,8.74 17.86,9.26C17.86,9.78 18.02,10.213 18.34,10.56C18.667,10.913 19.09,11.09 19.61,11.09ZM28.52,10.25L28.52,5.83L30.43,5.83L30.43,12.67L28.52,12.67L28.52,12.05C28.06,12.463 27.513,12.67 26.88,12.67C26.013,12.67 25.353,12.407 24.9,11.88C24.44,11.353 24.21,10.75 24.21,10.07L24.21,5.83L26.13,5.83L26.13,9.59C26.13,10.043 26.243,10.397 26.47,10.65C26.697,10.903 27.04,11.037 27.5,11.05C27.9,11.023 28.24,10.757 28.52,10.25ZM33.97,15.55L32.06,15.54L32.06,6.04L33.97,5.83L33.97,6.38C34.483,6.013 34.987,5.83 35.48,5.83C36.527,5.83 37.357,6.173 37.97,6.86C38.59,7.54 38.9,8.337 38.9,9.25C38.9,10.163 38.59,10.96 37.97,11.64C37.357,12.327 36.527,12.67 35.48,12.67C34.793,12.623 34.29,12.437 33.97,12.11L33.97,15.55ZM33.97,8.63L33.97,9.74C34.063,10.507 34.543,10.957 35.41,11.09C36.503,11.003 37.12,10.437 37.26,9.39C37.213,8.11 36.597,7.447 35.41,7.4C34.543,7.54 34.063,7.95 33.97,8.63ZM43.35,12.74C42.357,12.74 41.53,12.407 40.87,11.74C40.203,11.073 39.87,10.247 39.87,9.26C39.87,8.267 40.203,7.437 40.87,6.77C41.53,6.103 42.357,5.77 43.35,5.77C44.343,5.77 45.173,6.103 45.84,6.77C46.507,7.437 46.84,8.267 46.84,9.26C46.84,10.253 46.507,11.08 45.84,11.74C45.173,12.407 44.343,12.74 43.35,12.74ZM43.35,11.09C43.87,11.09 44.29,10.913 44.61,10.56C44.937,10.213 45.1,9.78 45.1,9.26C45.1,8.74 44.937,8.307 44.61,7.96C44.29,7.607 43.867,7.43 43.34,7.43C42.827,7.43 42.407,7.607 42.08,7.96C41.76,8.307 41.6,8.74 41.6,9.26C41.6,9.78 41.76,10.213 42.08,10.56C42.407,10.913 42.83,11.09 43.35,11.09ZM50.03,8.3L50.03,12.67L48.11,12.67L48.11,6.04L50.03,5.83L50.03,6.44C50.457,6.04 51.003,5.84 51.67,5.84C52.53,5.84 53.19,6.1 53.65,6.62C54.15,6.1 54.9,5.84 55.9,5.84C56.767,5.84 57.43,6.1 57.89,6.62C58.343,7.147 58.57,7.753 58.57,8.44L58.57,12.67L56.66,12.67L56.66,8.91C56.66,8.457 56.557,8.103 56.35,7.85C56.143,7.603 55.81,7.473 55.35,7.46C54.97,7.487 54.643,7.737 54.37,8.21C54.343,8.35 54.33,8.493 54.33,8.64L54.33,12.67L52.42,12.67L52.42,8.91C52.42,8.457 52.317,8.103 52.11,7.85C51.903,7.603 51.57,7.473 51.11,7.46C50.69,7.487 50.33,7.767 50.03,8.3ZM61.14,7.82L60.39,6.66C61.257,6.113 62.26,5.84 63.4,5.84C64.22,5.84 64.867,6.067 65.34,6.52C65.82,6.98 66.06,7.663 66.06,8.57L66.06,12.67L64.15,12.67L64.15,12.13C63.59,12.49 63.087,12.67 62.64,12.67C61.733,12.67 61.05,12.477 60.59,12.09C60.137,11.703 59.91,11.17 59.91,10.49C59.91,9.85 60.127,9.28 60.56,8.78C60.987,8.28 61.68,8.03 62.64,8.03C63.087,8.03 63.59,8.167 64.15,8.44L64.15,8.23C64.137,7.73 63.77,7.457 63.05,7.41C62.23,7.41 61.593,7.547 61.14,7.82ZM64.15,10.62L64.15,9.85C63.97,9.497 63.537,9.32 62.85,9.32C62.03,9.413 61.597,9.733 61.55,10.28C61.597,10.82 62.03,11.113 62.85,11.16C63.537,11.16 63.97,10.98 64.15,10.62ZM69.69,8.33L69.69,12.67L67.77,12.67L67.77,6.04L69.69,5.83L69.69,6.45C70.15,6.043 70.697,5.84 71.33,5.84C72.197,5.84 72.857,6.1 73.31,6.62C73.763,7.147 73.99,7.753 73.99,8.44L73.99,12.67L72.08,12.67L72.08,8.91C72.08,8.457 71.967,8.103 71.74,7.85C71.507,7.603 71.16,7.473 70.7,7.46C70.307,7.487 69.97,7.777 69.69,8.33ZM77.51,12.67L75.6,12.67L75.6,5.83L77.51,5.83L77.51,12.67ZM75.53,4.2C75.53,4.473 75.62,4.7 75.8,4.88C75.987,5.06 76.24,5.15 76.56,5.15C76.873,5.15 77.123,5.06 77.31,4.88C77.49,4.7 77.58,4.473 77.58,4.2C77.58,3.927 77.49,3.697 77.31,3.51C77.123,3.323 76.867,3.23 76.54,3.23C76.233,3.23 75.987,3.323 75.8,3.51C75.62,3.697 75.53,3.927 75.53,4.2ZM80.06,7.82L79.31,6.66C80.177,6.113 81.18,5.84 82.32,5.84C83.14,5.84 83.79,6.067 84.27,6.52C84.743,6.98 84.98,7.663 84.98,8.57L84.98,12.67L83.07,12.67L83.07,12.13C82.517,12.49 82.017,12.67 81.57,12.67C80.657,12.67 79.973,12.477 79.52,12.09C79.06,11.703 78.83,11.17 78.83,10.49C78.83,9.85 79.047,9.28 79.48,8.78C79.907,8.28 80.603,8.03 81.57,8.03C82.01,8.03 82.51,8.167 83.07,8.44L83.07,8.23C83.063,7.73 82.7,7.457 81.98,7.41C81.16,7.41 80.52,7.547 80.06,7.82ZM83.07,10.62L83.07,9.85C82.89,9.497 82.457,9.32 81.77,9.32C80.95,9.413 80.517,9.733 80.47,10.28C80.517,10.82 80.95,11.113 81.77,11.16C82.457,11.16 82.89,10.98 83.07,10.62Z" style="fill:white;fill-rule:nonzero;"/>
    </g>
    <g transform="matrix(0.496962,0,0,0.496962,97.8022,-106.946)">
        <g>
            <g>
                <path d="M-155,298.8C-143.8,298.8 -133.3,294.5 -125.4,286.6C-117.5,278.7 -113.2,268.2 -113.2,257C-113.2,245.8 -117.5,235.3 -125.4,227.4C-133.3,219.5 -143.8,215.2 -155,215.2C-166.2,215.2 -176.7,219.5 -184.6,227.4C-192.5,235.3 -196.8,245.8 -196.8,257C-196.8,268.2 -192.5,278.7 -184.6,286.6C-176.7,294.5 -166.2,298.8 -155,298.8ZM-152.6,291.7C-153.4,291.8 -154.2,291.8 -155,291.8C-156.1,291.8 -157.2,291.7 -158.3,291.6C-161.9,286 -164.6,280 -166.2,273.7L-148.5,273.7C-147.9,275.2 -146.8,276.6 -145.5,277.5C-147.2,282.5 -149.6,287.2 -152.6,291.7ZM-143.1,289.7C-141.2,286.2 -139.7,282.7 -138.5,279C-135.6,278.4 -133.3,276.4 -132.2,273.7L-124.5,273.7C-128.5,281 -135.2,286.7 -143.1,289.7ZM-120.3,257C-120.3,260.3 -120.8,263.5 -121.6,266.6L-132.4,266.6C-133,265.3 -134,264.1 -135.2,263.2C-135,261 -134.9,258.8 -134.9,256.6C-134.9,253.5 -135.1,250.4 -135.5,247.4L-121.7,247.4C-120.7,250.4 -120.3,253.7 -120.3,257ZM-124.5,240.3L-136.7,240.3C-138,234.8 -139.9,229.6 -142.5,224.6C-134.9,227.5 -128.5,233.2 -124.5,240.3ZM-141.9,256.6C-141.9,258.3 -142,260 -142.1,261.7C-144.9,262.3 -147.2,264.1 -148.3,266.6L-167.6,266.6C-168,263.6 -168.3,260.5 -168.3,257.5C-168.3,255.6 -168.2,253.7 -168,251.8C-165.4,251.3 -163.3,249.6 -162,247.4L-142.5,247.4C-142.1,250.4 -141.9,253.5 -141.9,256.6ZM-157.6,222.4C-156.7,222.3 -155.8,222.3 -155,222.3C-154,222.3 -153,222.3 -152,222.4C-148.4,228 -145.7,234 -144.1,240.3L-161.5,240.3C-162.1,238.6 -163.2,237.1 -164.6,236C-162.8,231.2 -160.5,226.7 -157.6,222.4ZM-167.1,224.4C-168.8,227.6 -170.3,231 -171.5,234.4C-174.6,235 -177.1,237.3 -178.1,240.2L-185.4,240.2C-181.5,233.1 -175,227.4 -167.1,224.4ZM-189.7,257C-189.7,253.7 -189.2,250.4 -188.3,247.4L-177.4,247.4C-176.8,248.5 -175.9,249.5 -174.9,250.3C-175.1,252.7 -175.3,255.1 -175.3,257.5C-175.3,260.6 -175.1,263.6 -174.7,266.6L-188.3,266.6C-189.3,263.5 -189.7,260.3 -189.7,257ZM-173.5,273.6C-172.2,279 -170.3,284.3 -167.7,289.3C-175.3,286.3 -181.6,280.7 -185.5,273.6L-173.5,273.6Z" style="fill:white;fill-rule:nonzero;"/>
            </g>
        </g>
    </g>
</svg>
